<?xml version="1.0" encoding="utf-8"?>
<!-- Generator: Adobe Illustrator 24.0.1, SVG Export Plug-In . SVG Version: 6.00 Build 0)  -->
<svg version="1.1" id="Layer_1" xmlns="http://www.w3.org/2000/svg" xmlns:xlink="http://www.w3.org/1999/xlink" x="0px" y="0px"
	 viewBox="0 0 140 140.7" style="enable-background:new 0 0 140 140.7;" xml:space="preserve">
<style type="text/css">
	.st0{fill:none;}
	.st1{fill:#37B49C;}
	.st2{fill:#1D9981;}
	.st3{fill:#0057A4;}
</style>
<g>
	<path class="st0" d="M34,54.4v5h1.7v-5c0-0.5-0.4-0.8-0.8-0.8C34.4,53.5,34,53.9,34,54.4z"/>
	<polygon class="st0" points="101,29.3 69.6,19 42.5,29.3 69.6,39.6 	"/>
	<path class="st0" d="M51.2,49.6v3c0,13.6,8.6,24.6,19.1,24.6c10.5,0,19.1-11,19.1-24.6v-2.9c-5.4,2.7-12.1,4.2-19,4.2
		C63.3,53.9,56.6,52.3,51.2,49.6z"/>
	<path class="st0" d="M70.4,48.5c7.2,0,14.1-1.8,19-5v-4.7l-19,6.2c-0.3,0.1-0.6,0.1-0.8,0.1c-0.3,0-0.7-0.1-1-0.2l-17.4-6.6v4.9
		C56.1,46.6,63,48.5,70.4,48.5z"/>
	<path class="st1" d="M32.2,28.7c0-0.1,0.1-0.2,0.1-0.3C32.3,28.5,32.2,28.6,32.2,28.7z"/>
	<path class="st1" d="M32.1,29.3c0-0.2,0-0.3,0-0.5C32.2,29,32.1,29.1,32.1,29.3z"/>
	<path class="st1" d="M32.4,28.2c0.1-0.1,0.1-0.2,0.2-0.3C32.5,28,32.4,28.1,32.4,28.2z"/>
	<path class="st1" d="M33,27.3c0.1-0.1,0.2-0.2,0.3-0.2C33.2,27.2,33.1,27.3,33,27.3z"/>
	<path class="st1" d="M32.6,27.8c0.1-0.1,0.2-0.3,0.3-0.4C32.8,27.5,32.7,27.7,32.6,27.8z"/>
	<path class="st1" d="M37.6,29.3v3.9l8.2,3.1v-1c0-1.5,1.2-2.7,2.7-2.7s2.7,1.2,2.7,2.7v3L68.6,45c0.3,0.1,0.6,0.2,1,0.2
		c0.3,0,0.6,0,0.8-0.1l19-6.2v-3.1c0-1.5,1.2-2.7,2.7-2.7s2.7,1.2,2.7,2.7V37l15.7-5.1c1.1-0.4,1.9-1.4,1.9-2.6
		c0-1.2-0.8-2.2-1.9-2.6L70.4,13.6c-0.6-0.2-1.2-0.2-1.8,0L33.9,26.8c0,0,0,0-0.1,0c0.3-0.1,0.7-0.2,1-0.2
		C36.3,26.6,37.6,27.8,37.6,29.3z M69.6,19L101,29.3L69.6,39.6L42.5,29.3L69.6,19z"/>
	<path class="st1" d="M33.4,27c0.1-0.1,0.2-0.1,0.3-0.2C33.6,26.9,33.5,27,33.4,27z"/>
	<path class="st1" d="M89.4,43.5c0.4-0.2,0.8-0.5,1.1-0.8c1.2-0.9,2.9-0.6,3.8,0.6s0.6,2.9-0.6,3.8c-1.3,1-2.8,1.8-4.3,2.6v2.9
		c0,13.6-8.6,24.6-19.1,24.6c-10.5,0-19.1-11-19.1-24.6v-3c-1.6-0.8-3-1.7-4.3-2.7c-1.2-0.9-1.4-2.6-0.5-3.8s2.6-1.4,3.8-0.5
		c0.3,0.3,0.7,0.5,1.1,0.8v-4.9l-5.4-2.1v16.2c0,16.6,11,30,24.5,30c13.5,0,24.5-13.5,24.5-30V37l-5.4,1.8V43.5z"/>
	<path class="st2" d="M51.2,35.4c0-1.5-1.2-2.7-2.7-2.7s-2.7,1.2-2.7,2.7v1l5.4,2.1V35.4z"/>
	<path class="st2" d="M92.1,33c-1.5,0-2.7,1.2-2.7,2.7v3.1l5.4-1.8v-1.3C94.8,34.2,93.6,33,92.1,33z"/>
	<path class="st1" d="M51.2,43.3v6.3c5.4,2.8,12.2,4.3,19.2,4.3c6.9,0,13.6-1.5,19-4.2v-6.2c-4.9,3.2-11.8,5-19,5
		C63,48.5,56.1,46.6,51.2,43.3z"/>
	<path class="st2" d="M50.1,42.6c-1.2-0.9-2.9-0.7-3.8,0.5s-0.7,2.9,0.5,3.8c1.3,1,2.8,1.9,4.3,2.7v-6.3
		C50.8,43.1,50.4,42.8,50.1,42.6z"/>
	<path class="st2" d="M93.7,47.1c1.2-0.9,1.5-2.6,0.6-3.8s-2.6-1.5-3.8-0.6c-0.4,0.3-0.7,0.5-1.1,0.8v6.2
		C90.9,48.9,92.4,48,93.7,47.1z"/>
	<path class="st1" d="M32.6,27.9C32.6,27.8,32.6,27.8,32.6,27.9C32.6,27.8,32.6,27.8,32.6,27.9z"/>
	<path class="st1" d="M32.3,28.4c0-0.1,0-0.1,0.1-0.1C32.4,28.3,32.3,28.3,32.3,28.4z"/>
	<path class="st1" d="M32.9,27.4C32.9,27.4,33,27.4,32.9,27.4C33,27.4,32.9,27.4,32.9,27.4z"/>
	<path class="st1" d="M32.2,28.8c0-0.1,0-0.1,0-0.2C32.2,28.7,32.2,28.8,32.2,28.8z"/>
	<path class="st1" d="M33.3,27.1c0,0,0.1-0.1,0.1-0.1C33.4,27.1,33.3,27.1,33.3,27.1z"/>
	<path class="st1" d="M33.7,26.9c0,0,0.1,0,0.1-0.1C33.8,26.8,33.7,26.8,33.7,26.9z"/>
	<path class="st1" d="M37.6,48.7V33.2l-3.7-1.4c-1.1-0.4-1.8-1.4-1.8-2.5v19.4c0.8-0.4,1.7-0.6,2.7-0.6
		C35.8,48.1,36.7,48.3,37.6,48.7z"/>
	<path class="st2" d="M33.9,31.9l3.7,1.4v-3.9c0-1.5-1.2-2.7-2.7-2.7c-0.4,0-0.7,0.1-1,0.2c0,0-0.1,0-0.1,0.1
		c-0.1,0-0.2,0.1-0.3,0.2c0,0-0.1,0.1-0.1,0.1c-0.1,0.1-0.2,0.1-0.3,0.2c0,0-0.1,0.1-0.1,0.1c-0.1,0.1-0.2,0.2-0.3,0.4
		c0,0,0,0,0,0.1c-0.1,0.1-0.1,0.2-0.2,0.3c0,0,0,0.1-0.1,0.1c0,0.1-0.1,0.2-0.1,0.3c0,0.1,0,0.1,0,0.2c0,0.2,0,0.3,0,0.5
		C32.1,30.4,32.8,31.5,33.9,31.9z"/>
	<path class="st1" d="M31.3,64.8h7.1c1.5,0,2.7-1.2,2.7-2.7v-7.7c0-2.5-1.5-4.6-3.6-5.6v2.1c0,1.5-1.2,2.7-2.7,2.7
		c0.5,0,0.8,0.4,0.8,0.8v5H34v-5c0-0.5,0.4-0.8,0.8-0.8c-1.5,0-2.7-1.2-2.7-2.7v-2.1c-2.1,1-3.6,3.2-3.6,5.6v7.7
		C28.6,63.6,29.8,64.8,31.3,64.8z"/>
	<path class="st2" d="M34.8,53.5c1.5,0,2.7-1.2,2.7-2.7v-2.1c-0.8-0.4-1.7-0.6-2.7-0.6c-1,0-1.9,0.2-2.7,0.6v2.1
		C32.1,52.3,33.3,53.5,34.8,53.5z"/>
	<path class="st1" d="M110.5,119.6c1.5,0,2.7-1.2,2.7-2.7v-6.8c0-0.2,0-0.3,0-0.5c-2.6-14.3-12.4-26.3-26.2-32c-1-0.4-2.2-0.2-3,0.6
		L69.8,92.6L55.6,78.3c-0.8-0.8-1.9-1-3-0.6c-13.8,5.7-23.6,17.7-26.2,32c0,0.2,0,0.3,0,0.5v6.8c0,1.5,1.2,2.7,2.7,2.7
		s2.7-1.2,2.7-2.7v-6.5C34,98.6,41.9,88.6,53,83.4l14.9,14.9c1.1,1.1,2.8,1.1,3.8,0l14.9-14.9c11.1,5.2,19,15.2,21.2,27v6.5
		C107.8,118.4,109,119.6,110.5,119.6z"/>
	<path class="st3" d="M113.9,93.7c-1.5-0.4-2.9,0.5-3.3,2c-0.4,1.5,0.5,2.9,2,3.3c14.6,3.7,19.7,8.3,19.7,11.1
		c0,6.6-23.7,15.7-62.4,15.7s-62.4-9.2-62.4-15.7c0-2.8,5.2-7.4,19.7-11.1c1.5-0.4,2.3-1.8,2-3.3c-0.4-1.5-1.8-2.3-3.3-2
		C14.9,96.5,2,101.5,2,110.1c0,6.3,7.3,11.8,21,15.7c12.5,3.6,29.2,5.5,46.8,5.5s34.3-2,46.8-5.5c13.8-3.9,21-9.3,21-15.7
		C137.7,101.5,124.7,96.5,113.9,93.7z"/>
</g>
</svg>
